<?xml version="1.0" standalone="no"?><svg xmlns="http://www.w3.org/2000/svg" viewBox="0 0 1440 320"><path fill="#323665" fill-opacity="1" d="M0,128L24,133.3C48,139,96,149,144,170.7C192,192,240,224,288,213.3C336,203,384,149,432,144C480,139,528,181,576,213.3C624,245,672,267,720,250.7C768,235,816,181,864,160C912,139,960,149,1008,144C1056,139,1104,117,1152,106.7C1200,96,1248,96,1296,90.7C1344,85,1392,75,1416,69.3L1440,64L1440,0L1416,0C1392,0,1344,0,1296,0C1248,0,1200,0,1152,0C1104,0,1056,0,1008,0C960,0,912,0,864,0C816,0,768,0,720,0C672,0,624,0,576,0C528,0,480,0,432,0C384,0,336,0,288,0C240,0,192,0,144,0C96,0,48,0,24,0L0,0Z"></path></svg>